<svg xmlns="http://www.w3.org/2000/svg" width="1200" height="1200" viewBox="0 0 1200 1200">
  <defs>
    <linearGradient id="bg" x1="0%" y1="0%" x2="100%" y2="100%">
      <stop offset="0%" stop-color="#0a0a0a"/>
      <stop offset="100%" stop-color="#141414"/>
    </linearGradient>
    <radialGradient id="glow" cx="50%" cy="40%" r="55%">
      <stop offset="0%" stop-color="#DC2626" stop-opacity="0.25"/>
      <stop offset="60%" stop-color="#DC2626" stop-opacity="0.05"/>
      <stop offset="100%" stop-color="#DC2626" stop-opacity="0"/>
    </radialGradient>
    <pattern id="grid" width="48" height="48" patternUnits="userSpaceOnUse">
      <path d="M48 0 L0 0 0 48" fill="none" stroke="#ffffff" stroke-width="0.6" stroke-opacity="0.04"/>
    </pattern>
  </defs>

  <rect width="1200" height="1200" fill="url(#bg)"/>
  <rect width="1200" height="1200" fill="url(#grid)"/>
  <rect width="1200" height="1200" fill="url(#glow)"/>
  <rect x="0" y="0" width="1200" height="4" fill="#DC2626"/>
  <rect x="0" y="1196" width="1200" height="4" fill="#DC2626"/>

  <!-- Logo + wordmark centered top -->
  <g transform="translate(600, 200)" text-anchor="middle">
    <g transform="translate(-44, -44)">
      <rect width="88" height="88" rx="16" fill="#0a0a0a" stroke="#DC2626" stroke-width="2"/>
      <g transform="translate(20, 20)">
        <path d="M4 10 L16 2 L28 10 L28 24 L22 30 L16 24 L10 30 L4 24Z" fill="none" stroke="#DC2626" stroke-width="2.5" stroke-linejoin="round"/>
        <circle cx="12" cy="14" r="2" fill="#DC2626"/>
        <circle cx="20" cy="14" r="2" fill="#DC2626"/>
      </g>
    </g>
    <text x="0" y="100" font-family="Outfit, Helvetica, Arial, sans-serif" font-size="64" font-weight="700" fill="#ffffff" letter-spacing="-1">pwnkit</text>
  </g>

  <!-- Tag pill -->
  <g transform="translate(600, 380)">
    <rect x="-180" y="-26" width="360" height="48" rx="24" fill="#DC2626" fill-opacity="0.12" stroke="#DC2626" stroke-opacity="0.5" stroke-width="1.2"/>
    <text x="0" y="6" font-family="Outfit, Helvetica, Arial, sans-serif" font-size="20" font-weight="600" fill="#fca5a5" text-anchor="middle">XBOW BENCHMARK LEADER</text>
  </g>

  <!-- Big 86.5% -->
  <text x="600" y="660" font-family="Space Mono, Menlo, Monaco, monospace" font-size="260" font-weight="700" fill="#ffffff" letter-spacing="-8" text-anchor="middle">86.5<tspan fill="#DC2626">%</tspan></text>

  <!-- Tagline -->
  <text x="600" y="780" font-family="Outfit, Helvetica, Arial, sans-serif" font-size="40" font-weight="600" fill="#ffffff" text-anchor="middle">The leading open-source AI pentest agent</text>

  <!-- Subtitle -->
  <text x="600" y="840" font-family="Outfit, Helvetica, Arial, sans-serif" font-size="26" font-weight="500" fill="#9ca3af" text-anchor="middle">90 of 104 XBOW challenges  ·  single command  ·  Apache 2.0</text>

  <!-- Command pill -->
  <g transform="translate(600, 960)">
    <rect x="-280" y="-32" width="560" height="64" rx="12" fill="#000000" fill-opacity="0.6" stroke="#262626" stroke-width="1.2"/>
    <text x="-260" y="10" font-family="Space Mono, Menlo, Monaco, monospace" font-size="26" font-weight="400" fill="#9ca3af">$</text>
    <text x="-228" y="10" font-family="Space Mono, Menlo, Monaco, monospace" font-size="26" font-weight="700" fill="#ffffff">npx pwnkit-cli scan</text>
  </g>

  <!-- URL bottom -->
  <text x="600" y="1110" font-family="Outfit, Helvetica, Arial, sans-serif" font-size="28" font-weight="600" fill="#ffffff" text-anchor="middle">pwnkit.com</text>
</svg>
